<svg width="4320" height="600" viewBox="0 0 4320 600" version="1.1" xmlns="http://www.w3.org/2000/svg" xmlns:xlink="http://www.w3.org/1999/xlink">
<title>Desktop HD</title>
<desc>Created using Figma</desc>
<g id="Canvas" transform="translate(485 500)">
<clipPath id="clip-0" clip-rule="evenodd">
<path d="M -485 -500L 3835 -500L 3835 100L -485 100L -485 -500Z" fill="#FFFFFF"/>
</clipPath>
<g id="Desktop HD" clip-path="url(#clip-0)">
<path d="M -485 -500L 3835 -500L 3835 100L -485 100L -485 -500Z" fill="#FFFFFF"/>
<clipPath id="clip-1" clip-rule="evenodd">
<path d="M -485 -500L 955 -500L 955 100L -485 100L -485 -500Z" fill="#FFFFFF"/>
</clipPath>
<g id="1" clip-path="url(#clip-1)">
<path d="M -485 -500L 955 -500L 955 100L -485 100L -485 -500Z" fill="#0064AA"/>
<g id="Far Mountain">
<use xlink:href="#path0_fill" transform="translate(84 -149)" fill="#1E4F33"/>
</g>
<g id="Far Mountain">
<use xlink:href="#path0_fill" transform="translate(295 -138)" fill="#1E4F33"/>
</g>
<g id="Far Mountain">
<use xlink:href="#path0_fill" transform="translate(499 -149)" fill="#1E4F33"/>
</g>
<g id="Far Mountain">
<use xlink:href="#path0_fill" transform="translate(686 -138)" fill="#1E4F33"/>
</g>
<g id="Star">
<use xlink:href="#path1_fill" transform="matrix(0.906308 -0.422618 0.422618 0.906308 -391.149 -428.203)" fill="#F7DB86"/>
</g>
<g id="Star">
<use xlink:href="#path2_fill" transform="matrix(1 2.22045e-16 -2.22045e-16 1 -14.5768 -183.351)" fill="#F7DB86"/>
</g>
<g id="Star">
<use xlink:href="#path2_fill" transform="matrix(-1 -3.44509e-16 3.44509e-16 -1 -26.5768 -387.351)" fill="#F7DB86"/>
</g>
<g id="Star">
<use xlink:href="#path2_fill" transform="matrix(-1 -3.44509e-16 3.44509e-16 -1 -444 -121)" fill="#F7DB86"/>
</g>
<g id="Star">
<use xlink:href="#path2_fill" transform="matrix(-1 -3.44509e-16 3.44509e-16 -1 -224.577 -181.351)" fill="#F7DB86"/>
</g>
<g id="Far Mountain">
<use xlink:href="#path0_fill" transform="translate(-142 -149)" fill="#1E4F33"/>
</g>
<g id="Far Mountain">
<use xlink:href="#path0_fill" transform="translate(-361 -173)" fill="#1E4F33"/>
</g>
<g id="Mountain 1">
<use xlink:href="#path3_fill" transform="translate(-355 -191)" fill="#2C8259"/>
</g>
<g id="Mountain 1.6">
<use xlink:href="#path3_fill" transform="translate(-547 -174)" fill="#2C8259"/>
</g>
<g id="Mountain 1.1">
<use xlink:href="#path3_fill" transform="translate(-130 -191)" fill="#2C8259"/>
</g>
<g id="Mountain 1.2">
<use xlink:href="#path3_fill" transform="translate(94 -174)" fill="#2C8259"/>
</g>
<g id="Mountain 1.3">
<use xlink:href="#path3_fill" transform="translate(303 -159)" fill="#2C8259"/>
</g>
<g id="Mountain 1.4">
<use xlink:href="#path3_fill" transform="translate(492 -149)" fill="#2C8259"/>
</g>
<g id="Mountain 1.5">
<use xlink:href="#path3_fill" transform="translate(680 -138)" fill="#2C8259"/>
</g>
</g>
<clipPath id="clip-2" clip-rule="evenodd">
<path d="M 2394 -500L 3851 -500L 3851 102L 2394 102L 2394 -500Z" fill="#FFFFFF"/>
</clipPath>
<g id="3" clip-path="url(#clip-2)">
<path d="M 2394 -500L 3851 -500L 3851 102L 2394 102L 2394 -500Z" fill="#003585"/>
</g>
<g id="Ellipse 2">
<use xlink:href="#path4_fill" transform="translate(2712 -462)" fill="#828282"/>
</g>
<g id="Ellipse 2.1">
<use xlink:href="#path5_fill" transform="translate(2740 -396)" fill="#999999"/>
</g>
<g id="Ellipse 2.2">
<use xlink:href="#path6_fill" transform="matrix(0.999173 0.040667 -0.040667 0.999173 2736.51 -437.414)" fill="#999999"/>
</g>
<g id="Ellipse 2.4">
<use xlink:href="#path7_fill" transform="matrix(0.999173 0.040667 -0.040667 0.999173 2789.64 -420)" fill="#999999"/>
</g>
<g id="Ellipse 2.3">
<use xlink:href="#path6_fill" transform="matrix(0.999173 0.040667 -0.040667 0.999173 2766.51 -459)" fill="#999999"/>
</g>
<g id="Group" filter="url(#filter0_d)">
<g id="Group 2.1">
<g id="Star">
<use xlink:href="#path8_fill" transform="matrix(-0.645127 0.764075 -0.764075 -0.645127 2775.29 -97.8128)" fill="#C4C4C4"/>
</g>
<g id="Star">
<use xlink:href="#path9_fill" transform="matrix(-0.0379563 0.999279 -0.999279 -0.0379563 2707.05 -152.336)" fill="#C4C4C4"/>
</g>
<g id="Star">
<use xlink:href="#path10_fill" transform="matrix(-0.645127 0.764075 -0.764075 -0.645127 2745.74 -45.3022)" fill="#C4C4C4"/>
</g>
<g id="Star">
<use xlink:href="#path11_fill" transform="matrix(-0.960414 -0.278576 0.278576 -0.960414 2774.49 -148.578)" fill="#DBDBDB"/>
</g>
<g id="Star">
<use xlink:href="#path12_fill" transform="matrix(0.321386 0.946948 -0.946948 0.321386 2662.76 -87.0561)" fill="#FFFFFF"/>
</g>
</g>
<g id="Group 2.3">
<g id="Star">
<use xlink:href="#path8_fill" transform="matrix(-0.931866 0.362804 -0.362804 -0.931866 3021.92 -339.954)" fill="#C4C4C4"/>
</g>
<g id="Star">
<use xlink:href="#path9_fill" transform="matrix(-0.510956 0.859607 -0.859607 -0.510956 2988.03 -420.465)" fill="#C4C4C4"/>
</g>
<g id="Star">
<use xlink:href="#path10_fill" transform="matrix(-0.931866 0.362804 -0.362804 -0.931866 2970.86 -307.955)" fill="#C4C4C4"/>
</g>
<g id="Star">
<use xlink:href="#path11_fill" transform="matrix(-0.710461 -0.703736 0.703736 -0.710461 3045.48 -384.926)" fill="#DBDBDB"/>
</g>
<g id="Star">
<use xlink:href="#path12_fill" transform="matrix(-0.170304 0.985392 -0.985392 -0.170304 2917.93 -384.293)" fill="#FFFFFF"/>
</g>
</g>
<g id="Group 2.4">
<g id="Star">
<use xlink:href="#path13_fill" transform="matrix(-0.999933 0.0116204 -0.131756 0.991282 3017.94 -207.782)" fill="#C4C4C4"/>
</g>
<g id="Star">
<use xlink:href="#path14_fill" transform="matrix(-0.858107 -0.513471 -0.76773 0.640774 3005.79 -136.437)" fill="#C4C4C4"/>
</g>
<g id="Star">
<use xlink:href="#path15_fill" transform="matrix(-0.999933 0.0116204 -0.131756 0.991282 2952.33 -216.23)" fill="#C4C4C4"/>
</g>
<g id="Star">
<use xlink:href="#path16_fill" transform="matrix(-0.596501 0.802612 0.95124 0.308453 3057.54 -181.04)" fill="#DBDBDB"/>
</g>
<g id="Star">
<use xlink:href="#path17_fill" transform="matrix(-0.577449 -0.816427 -0.920986 0.389595 2918.1 -142.164)" fill="#FFFFFF"/>
</g>
</g>
<g id="Group 2.2">
<g id="Star">
<use xlink:href="#path8_fill" transform="matrix(-0.645127 0.764075 -0.764075 -0.645127 2591.29 -351.813)" fill="#C4C4C4"/>
</g>
<g id="Star">
<use xlink:href="#path12_fill" transform="matrix(0.321386 0.946948 -0.946948 0.321386 2478.75 -341.056)" fill="#FFFFFF"/>
</g>
<g id="Group 2.1">
<g id="Star">
<use xlink:href="#path8_fill" transform="matrix(-0.645127 0.764075 -0.764075 -0.645127 3354.62 -40.3829)" fill="#C4C4C4"/>
</g>
<g id="Star">
<use xlink:href="#path9_fill" transform="matrix(-0.0379563 0.999279 -0.999279 -0.0379563 3289.27 -459.91)" fill="#C4C4C4"/>
</g>
<g id="Star">
<use xlink:href="#path10_fill" transform="matrix(-0.645127 0.764075 -0.764075 -0.645127 3327.96 -352.876)" fill="#C4C4C4"/>
</g>
<g id="Star">
<use xlink:href="#path11_fill" transform="matrix(-0.960414 -0.278576 0.278576 -0.960414 3356.72 -456.152)" fill="#DBDBDB"/>
</g>
<g id="Star">
<use xlink:href="#path8_fill" transform="matrix(-0.645127 0.764075 -0.764075 -0.645127 3622.63 -245.383)" fill="#C4C4C4"/>
</g>
<g id="Star">
<use xlink:href="#path9_fill" transform="matrix(-0.0379563 0.999279 -0.999279 -0.0379563 3554.38 -299.906)" fill="#C4C4C4"/>
</g>
<g id="Star">
<use xlink:href="#path10_fill" transform="matrix(-0.645127 0.764075 -0.764075 -0.645127 3162.89 -256.298)" fill="#C4C4C4"/>
</g>
<g id="Star">
<use xlink:href="#path11_fill" transform="matrix(-0.960414 -0.278576 0.278576 -0.960414 3191.65 -359.574)" fill="#DBDBDB"/>
</g>
<g id="Star">
<use xlink:href="#path8_fill" transform="matrix(-0.645127 0.764075 -0.764075 -0.645127 3457.55 -148.805)" fill="#C4C4C4"/>
</g>
<g id="Star">
<use xlink:href="#path9_fill" transform="matrix(-0.0379563 0.999279 -0.999279 -0.0379563 3389.31 -203.328)" fill="#C4C4C4"/>
</g>
<g id="Star">
<use xlink:href="#path10_fill" transform="matrix(-0.645127 0.764075 -0.764075 -0.645127 3428 -96.2944)" fill="#C4C4C4"/>
</g>
<g id="Star">
<use xlink:href="#path11_fill" transform="matrix(-0.785142 0.619316 -0.619316 -0.785142 2882.83 49.3285)" fill="#DBDBDB"/>
</g>
<g id="Star">
<use xlink:href="#path8_fill" transform="matrix(0.246428 0.969161 -0.969161 0.246428 3208.93 -44.4217)" fill="#C4C4C4"/>
</g>
<g id="Star">
<use xlink:href="#path9_fill" transform="matrix(0.790863 0.611994 -0.611994 0.790863 3124.88 -20.6096)" fill="#C4C4C4"/>
</g>
<g id="Star">
<use xlink:href="#path10_fill" transform="matrix(0.246428 0.969161 -0.969161 0.246428 3234.46 10.1572)" fill="#C4C4C4"/>
</g>
<g id="Star">
<use xlink:href="#path11_fill" transform="matrix(-0.960414 -0.278576 0.278576 -0.960414 2786.6 28.425)" fill="#DBDBDB"/>
</g>
<g id="Star">
<use xlink:href="#path12_fill" transform="matrix(0.321386 0.946948 -0.946948 0.321386 2409.76 -70.0572)" fill="#FFFFFF"/>
</g>
</g>
</g>
</g>
<clipPath id="clip-3" clip-rule="evenodd">
<path d="M 955 -500L 2395 -500L 2395 100L 955 100L 955 -500Z" fill="#FFFFFF"/>
</clipPath>
<g id="2" clip-path="url(#clip-3)">
<path d="M 955 -500L 2395 -500L 2395 100L 955 100L 955 -500Z" fill="#F2994A"/>
<g id="Ellipse">
<use xlink:href="#path18_fill" transform="translate(1557 -49)" fill="#F2C94C"/>
</g>
<g id="Rectangle 4">
<use xlink:href="#path19_fill" transform="translate(2150 -92)" fill="#9E3900"/>
</g>
<g id="Rectangle 4">
<use xlink:href="#path20_fill" transform="translate(2264 -178)" fill="#9E3900"/>
</g>
<g id="Rectangle 4">
<use xlink:href="#path21_fill" transform="translate(2120 -38)" fill="#9E3900"/>
</g>
<g id="Rectangle 4.1">
<use xlink:href="#path22_fill" transform="translate(940 16)" fill="#9E3900"/>
</g>
<g id="Rectangle 4">
<use xlink:href="#path23_fill" transform="translate(2129 -69)" fill="#9E3900"/>
</g>
<g id="Rectangle">
<use xlink:href="#path24_fill" transform="translate(1470 -171)" fill="#9E3900"/>
</g>
<g id="Rectangle">
<use xlink:href="#path25_fill" transform="translate(1750 -320)" fill="#9E3900"/>
</g>
<g id="Rectangle">
<use xlink:href="#path25_fill" transform="translate(1793 -298)" fill="#9E3900"/>
</g>
<g id="Rectangle">
<use xlink:href="#path26_fill" transform="translate(1719 -250)" fill="#9E3900"/>
</g>
<g id="Rectangle">
<use xlink:href="#path27_fill" transform="translate(1927 -280)" fill="#9E3900"/>
</g>
<g id="Polygon">
<use xlink:href="#path28_fill" transform="translate(1093 -175)" fill="#9E3900"/>
</g>
<g id="Polygon 2">
<use xlink:href="#path29_fill" transform="translate(1325 -446)" fill="#9E3900"/>
</g>
<g id="back R#">
<use xlink:href="#path30_fill" transform="translate(1281 -278)" fill="#9E3900"/>
</g>
<g id="Rectangle 4">
<use xlink:href="#path31_fill" transform="translate(1297 -373)" fill="#9E3900"/>
</g>
<g id="Polygon">
<use xlink:href="#path32_fill" transform="translate(1927 -370)" fill="#9E3900"/>
</g>
<g id="Rectangle">
<use xlink:href="#path33_fill" transform="translate(1106 -115)" fill="#9E3900"/>
</g>
<g id="Rectangle">
<use xlink:href="#path34_fill" transform="translate(1764 -20)" fill="#9E3900"/>
</g>
<g id="Rectangle">
<use xlink:href="#path35_fill" transform="translate(946 -223)" fill="#9E3900"/>
</g>
<g id="Front">
<use xlink:href="#path36_fill" transform="translate(1034 -38)" fill="#BD3B04"/>
</g>
<g id="Rectangle">
<use xlink:href="#path37_fill" transform="translate(1675 -30)" fill="#BD3B04"/>
</g>
<g id="Rectangle">
<use xlink:href="#path38_fill" transform="translate(1839 58)" fill="#BD3B04"/>
</g>
<g id="Rectangle">
<use xlink:href="#path39_fill" transform="translate(1905 -20)" fill="#BD3B04"/>
</g>
<g id="Roof">
<use xlink:href="#path40_fill" transform="translate(940 -11)" fill="#BD3B04"/>
</g>
<g id="Roof">
<use xlink:href="#path40_fill" transform="translate(2205 5)" fill="#BD3B04"/>
</g>
<g id="Rectangle 2.1">
<use xlink:href="#path41_fill" transform="translate(1429 46)" fill="#BD3B04"/>
</g>
<g id="Rectangle 2.5">
<use xlink:href="#path42_fill" transform="translate(1306 -30)" fill="#BD3B04"/>
</g>
<g id="Rectangle 2.4">
<use xlink:href="#path43_fill" transform="translate(2139 80)" fill="#BD3B04"/>
</g>
<g id="Rectangle 2.3">
<use xlink:href="#path44_fill" transform="translate(1586 99)" fill="#BD3B04"/>
</g>
<g id="Rectangle 3">
<use xlink:href="#path45_fill" transform="translate(1705 17)" fill="#BD3B04"/>
</g>
<g id="Rectangle 3.1">
<use xlink:href="#path46_fill" transform="matrix(-1 0 0 1 2366 -20)" fill="#BD3B04"/>
</g>
<g id="Rectangle 2.2">
<use xlink:href="#path47_fill" transform="translate(1455 3)" fill="#BD3B04"/>
</g>
<g id="Base">
<use xlink:href="#path48_fill" transform="translate(955 46)" fill="#BD3B04"/>
</g>
<g id="Base">
<use xlink:href="#path48_fill" transform="translate(2217 65)" fill="#BD3B04"/>
</g>
<g id="Base">
<use xlink:href="#path49_fill" transform="translate(2217 87)" fill="#BD3B04"/>
</g>
<g id="Roof">
<use xlink:href="#path50_fill" transform="translate(1086 17)" fill="#BD3B04"/>
</g>
<g id="Roof">
<use xlink:href="#path50_fill" transform="translate(1964 16)" fill="#BD3B04"/>
</g>
<g id="Base">
<use xlink:href="#path51_fill" transform="translate(1095 71)" fill="#BD3B04"/>
</g>
<g id="Base">
<use xlink:href="#path52_fill" transform="translate(1911 75)" fill="#BD3B04"/>
</g>
<g id="Polygon">
<use xlink:href="#path53_fill" transform="translate(1540.92 22.5)" fill="#BD3B04"/>
</g>
<g id="Polygon">
<use xlink:href="#path54_fill" transform="translate(1673 -90)" fill="#BD3B04"/>
</g>
</g>
<g id="Ellipse">
<use xlink:href="#path55_fill" transform="matrix(1 0 0 -1 3568 -313)" fill="#F2C94C"/>
</g>
<g id="Rocket">
<g id="Polygon 2">
<use xlink:href="#path56_fill" transform="matrix(-0.244644 -0.969613 -0.969613 0.244644 2892.78 -129.162)" fill="#FF0000"/>
</g>
<g id="Polygon 2.1">
<use xlink:href="#path56_fill" transform="matrix(0.869841 0.493333 -0.493333 0.869841 2887.59 -129.379)" fill="#FF0000"/>
</g>
<g id="Group 2">
<g id="Polygon">
<use xlink:href="#path57_fill" transform="matrix(0.605995 0.795469 -0.795469 0.605995 2952.49 -202.706)" fill="#C4C4C4"/>
</g>
<g id="Polygon 2" filter="url(#filter1_d)">
<use xlink:href="#path58_fill" transform="matrix(-0.605995 -0.795469 0.795469 -0.605995 2827.33 -63.3616)" fill="#FFE600"/>
</g>
<g id="Polygon 3">
<use xlink:href="#path59_fill" transform="matrix(0.605995 0.795469 0.795469 -0.605995 2834.91 -93.0194)" fill="#F2994A"/>
</g>
<g id="Rectangle">
<use xlink:href="#path60_fill" transform="matrix(0.605995 0.795469 -0.795469 0.605995 2918.51 -173.05)" fill="#C4C4C4"/>
</g>
<g id="Rectangle 2">
<use xlink:href="#path61_fill" transform="matrix(0.605995 0.795469 -0.795469 0.605995 2929.34 -168.731)" fill="#56CCF2"/>
</g>
</g>
</g>
<g id="Rectangle">
<use xlink:href="#path62_fill" transform="translate(2638 -272)" fill="#27AE60"/>
</g>
<g id="Rectangle">
<use xlink:href="#path63_fill" transform="translate(2621 -267)" fill="#27AE60"/>
</g>
<g id="Star">
<use xlink:href="#path64_fill" transform="matrix(0.208595 0.978002 -0.978002 0.208595 2439.52 -484)" fill="#0047FF"/>
</g>
<g id="Star">
<use xlink:href="#path9_fill" transform="matrix(0.766493 0.642253 -0.642253 0.766493 2502.22 -66)" fill="#C4C4C4"/>
</g>
<g id="Star">
<use xlink:href="#path10_fill" transform="matrix(0.208595 0.978002 -0.978002 0.208595 2610.52 -31)" fill="#C4C4C4"/>
</g>
<g id="Star">
<use xlink:href="#path11_fill" transform="matrix(-0.808607 0.58835 -0.58835 -0.808607 2546.52 -117.004)" fill="#DBDBDB"/>
</g>
<g id="Star">
<use xlink:href="#path12_fill" transform="matrix(0.945303 0.326195 -0.326195 0.945303 2526.68 9)" fill="#FFFFFF"/>
</g>
<g id="Earth" filter="url(#filter2_d)">
<g id="Ellipse 3">
<use xlink:href="#path65_fill" transform="translate(2451 -435)" fill="#147AD9"/>
</g>
<g id="Group 2" filter="url(#filter3_d)">
<g id="Rectangle">
<use xlink:href="#path66_fill" transform="translate(2535 -425)" fill="#E3E3E3"/>
</g>
<g id="Rectangle">
<use xlink:href="#path67_fill" transform="translate(2552 -435)" fill="#E3E3E3"/>
</g>
</g>
<g id="Group 2.1" filter="url(#filter4_d)">
<g id="Rectangle">
<use xlink:href="#path66_fill" transform="matrix(-0.999999 -0.00152019 0.00152019 -0.999999 2653.01 -186.822)" fill="#E3E3E3"/>
</g>
<g id="Rectangle">
<use xlink:href="#path67_fill" transform="matrix(-0.999999 -0.00152019 0.00152019 -0.999999 2636 -176.848)" fill="#E3E3E3"/>
</g>
</g>
<g id="Group" filter="url(#filter5_d)">
<g id="Rectangle 3">
<use xlink:href="#path68_fill" transform="translate(2504 -385)" fill="#6FCF97"/>
</g>
<g id="Rectangle 3.1">
<use xlink:href="#path68_fill" transform="translate(2521 -352)" fill="#6FCF97"/>
</g>
<g id="Rectangle 3.2">
<use xlink:href="#path69_fill" transform="translate(2482 -315)" fill="#6FCF97"/>
</g>
<g id="Rectangle 3.4">
<use xlink:href="#path69_fill" transform="matrix(0.972604 -0.232468 0.232468 0.972604 2470 -342.727)" fill="#6FCF97"/>
</g>
<g id="Rectangle 3.3">
<use xlink:href="#path70_fill" transform="translate(2523 -369)" fill="#6FCF97"/>
</g>
<g id="Rectangle 3">
<use xlink:href="#path71_fill" transform="matrix(0.119997 0.992774 -0.992774 0.119997 2557.79 -322.866)" fill="#27AE60"/>
</g>
<g id="Rectangle 3">
<use xlink:href="#path72_fill" transform="matrix(0.993831 -0.110908 0.110908 0.993831 2480.45 -339.798)" fill="#27AE60"/>
</g>
<g id="Rectangle 4">
<use xlink:href="#path73_fill" transform="translate(2476 -359)" fill="#27AE60"/>
</g>
<g id="Rectangle 2">
<use xlink:href="#path74_fill" transform="matrix(0.981741 0.190222 -0.190222 0.981741 2497.16 -375.512)" fill="#27AE60"/>
</g>
</g>
<g id="Group" filter="url(#filter6_d)">
<g id="Rectangle 3">
<use xlink:href="#path75_fill" transform="matrix(0.89755 -0.440913 0.440913 0.89755 2617.96 -393.669)" fill="#6FCF97"/>
</g>
<g id="Rectangle 3.1">
<use xlink:href="#path75_fill" transform="matrix(0.89755 -0.440913 0.440913 0.89755 2633.5 -379.684)" fill="#6FCF97"/>
</g>
<g id="Rectangle 3.2">
<use xlink:href="#path76_fill" transform="matrix(0.89755 -0.440913 0.440913 0.89755 2627.07 -352.292)" fill="#6FCF97"/>
</g>
<g id="Rectangle 3.4">
<use xlink:href="#path77_fill" transform="matrix(0.728529 -0.685015 0.597604 0.801792 2614.96 -364.503)" fill="#6FCF97"/>
</g>
<g id="Rectangle 3.3">
<use xlink:href="#path78_fill" transform="matrix(0.89755 -0.440913 0.440913 0.89755 2629.91 -389.058)" fill="#6FCF97"/>
</g>
<g id="Rectangle 3">
<use xlink:href="#path79_fill" transform="matrix(0.523026 0.852317 -0.81924 0.573451 2656.16 -371.732)" fill="#27AE60"/>
</g>
<g id="Rectangle 3">
<use xlink:href="#path80_fill" transform="matrix(0.825869 -0.563862 0.516912 0.856039 2620.01 -365.065)" fill="#27AE60"/>
</g>
<g id="Rectangle 4">
<use xlink:href="#path81_fill" transform="matrix(0.89755 -0.440913 0.440913 0.89755 2613.2 -374.3)" fill="#27AE60"/>
</g>
<g id="Rectangle 2">
<use xlink:href="#path82_fill" transform="matrix(0.977489 -0.210985 0.302168 0.953255 2617.61 -387.282)" fill="#27AE60"/>
</g>
</g>
<g id="Group" filter="url(#filter7_d)">
<g id="Rectangle 3">
<use xlink:href="#path83_fill" transform="matrix(0.89755 -0.440913 0.440913 0.89755 2612.35 -268.436)" fill="#6FCF97"/>
</g>
<g id="Rectangle 3.1">
<use xlink:href="#path83_fill" transform="matrix(0.89755 -0.440913 0.440913 0.89755 2630.67 -265.71)" fill="#6FCF97"/>
</g>
<g id="Rectangle 3.2">
<use xlink:href="#path84_fill" transform="matrix(0.89755 -0.440913 0.440913 0.89755 2604.49 -239.71)" fill="#6FCF97"/>
</g>
<g id="Rectangle 3.4">
<use xlink:href="#path85_fill" transform="matrix(0.856968 -0.51537 0.866539 0.499109 2590.94 -242.903)" fill="#6FCF97"/>
</g>
<g id="Rectangle 3.3">
<use xlink:href="#path86_fill" transform="matrix(0.89755 -0.440913 0.440913 0.89755 2629.88 -271.365)" fill="#6FCF97"/>
</g>
<g id="Rectangle 3">
<use xlink:href="#path87_fill" transform="matrix(0.706224 0.707988 -0.87778 0.479064 2664.36 -271.912)" fill="#27AE60"/>
</g>
<g id="Rectangle 3">
<use xlink:href="#path88_fill" transform="matrix(0.879353 -0.47617 0.689355 0.724424 2599.76 -246.196)" fill="#27AE60"/>
</g>
<g id="Rectangle 4">
<use xlink:href="#path89_fill" transform="matrix(0.89755 -0.440913 0.440913 0.89755 2593.48 -249.931)" fill="#27AE60"/>
</g>
<g id="Rectangle 2">
<use xlink:href="#path90_fill" transform="matrix(0.925744 -0.37815 -0.0421147 0.999113 2608.18 -263.018)" fill="#27AE60"/>
</g>
</g>
<g id="Group" filter="url(#filter8_d)">
<g id="Rectangle 3">
<use xlink:href="#path91_fill" transform="matrix(0.89755 -0.440913 0.440913 0.89755 2644.91 -284.708)" fill="#6FCF97"/>
</g>
<g id="Rectangle 3.1">
<use xlink:href="#path91_fill" transform="matrix(0.89755 -0.440913 0.440913 0.89755 2659.57 -269.915)" fill="#6FCF97"/>
</g>
<g id="Rectangle 3.2">
<use xlink:href="#path92_fill" transform="matrix(0.89755 -0.440913 0.440913 0.89755 2655.67 -243.34)" fill="#6FCF97"/>
</g>
<g id="Rectangle 3.4">
<use xlink:href="#path93_fill" transform="matrix(0.691071 -0.722787 0.573924 0.818908 2644.15 -256.162)" fill="#6FCF97"/>
</g>
<g id="Rectangle 3.3">
<use xlink:href="#path94_fill" transform="matrix(0.89755 -0.440913 0.440913 0.89755 2655.78 -279.387)" fill="#6FCF97"/>
</g>
<g id="Rectangle 3">
<use xlink:href="#path95_fill" transform="matrix(0.5101 0.860115 -0.802199 0.597056 2680.14 -260.604)" fill="#27AE60"/>
</g>
<g id="Rectangle 3">
<use xlink:href="#path96_fill" transform="matrix(0.810349 -0.585947 0.504918 0.863168 2648.58 -256.388)" fill="#27AE60"/>
</g>
<g id="Rectangle 4">
<use xlink:href="#path97_fill" transform="matrix(0.89755 -0.440913 0.440913 0.89755 2641.96 -265.932)" fill="#27AE60"/>
</g>
<g id="Rectangle 2">
<use xlink:href="#path98_fill" transform="matrix(0.985939 -0.167103 0.324881 0.945755 2645.02 -278.437)" fill="#27AE60"/>
</g>
</g>
</g>
<g id="Group 2.1">
<g id="Star">
<use xlink:href="#path8_fill" transform="matrix(-0.965378 0.260857 -0.260857 -0.965378 2717.37 -491.816)" fill="#C4C4C4"/>
</g>
<g id="Star">
<use xlink:href="#path10_fill" transform="matrix(-0.965378 0.260857 -0.260857 -0.965378 2663.18 -465.473)" fill="#C4C4C4"/>
</g>
</g>
<g id="Group 3">
<g id="Rectangle 3.1">
<use xlink:href="#path91_fill" transform="matrix(0.127353 0.991857 -0.991857 0.127353 2649.76 -245.747)" fill="#6FCF97"/>
</g>
<g id="Rectangle 3.2">
<use xlink:href="#path92_fill" transform="matrix(0.127353 0.991857 -0.991857 0.127353 2625.87 -258.023)" fill="#6FCF97"/>
</g>
<g id="Rectangle 3.4">
<use xlink:href="#path93_fill" transform="matrix(0.460812 0.887498 -0.960397 0.278636 2641.72 -264.78)" fill="#6FCF97"/>
</g>
<g id="Rectangle 3.3">
<use xlink:href="#path94_fill" transform="matrix(0.127353 0.991857 -0.991857 0.127353 2659.95 -246.268)" fill="#6FCF97"/>
</g>
<g id="Rectangle 3">
<use xlink:href="#path95_fill" transform="matrix(-0.978778 0.204922 -0.305925 -0.952056 2634.3 -229.288)" fill="#27AE60"/>
</g>
<g id="Rectangle 3">
<use xlink:href="#path96_fill" transform="matrix(0.292779 0.95618 -0.979993 0.199032 2640.51 -260.51)" fill="#27AE60"/>
</g>
<g id="Rectangle 3">
<use xlink:href="#path91_fill" transform="matrix(0.127353 0.991857 -0.991857 0.127353 2668.49 -254.841)" fill="#6FCF97"/>
</g>
<g id="Rectangle 4">
<use xlink:href="#path97_fill" transform="matrix(0.127353 0.991857 -0.991857 0.127353 2651.68 -263.697)" fill="#27AE60"/>
</g>
<g id="Rectangle 2">
<use xlink:href="#path98_fill" transform="matrix(-0.160331 0.987063 -0.999998 0.00196921 2662.53 -256.765)" fill="#27AE60"/>
</g>
</g>
<g id="Rectangle 2">
<use xlink:href="#path99_fill" transform="matrix(0.971177 -0.23836 0.23836 0.971177 2629 -266.088)" fill="#219653"/>
</g>
<g id="Rectangle 3">
<use xlink:href="#path100_fill" transform="matrix(-0.971454 0.237229 -0.237229 -0.971454 2542.36 -339.736)" fill="#219653"/>
</g>
<g id="Ellipse 2">
<use xlink:href="#path101_fill" transform="translate(2459 -54)" fill="#9B51E0"/>
</g>
<g id="Line">
<use xlink:href="#path102_stroke" transform="matrix(-0.999999 0.00112381 -0.00112381 -0.999999 2540 -40)" fill="#FFF500"/>
</g>
</g>
</g>
<defs>
<filter id="filter0_d" filterUnits="userSpaceOnUse" x="2396" y="-471" width="1231" height="627" color-interpolation-filters="sRGB">
<feFlood flood-opacity="0" result="BackgroundImageFix"/>
<feColorMatrix in="SourceAlpha" type="matrix" values="0 0 0 0 0 0 0 0 0 0 0 0 0 0 0 0 0 0 255 0"/>
<feOffset dx="0" dy="4"/>
<feGaussianBlur stdDeviation="2"/>
<feColorMatrix type="matrix" values="0 0 0 0 0 0 0 0 0 0 0 0 0 0 0 0 0 0 0.25 0"/>
<feBlend mode="normal" in2="BackgroundImageFix" result="effect1_dropShadow"/>
<feBlend mode="normal" in="SourceGraphic" in2="effect1_dropShadow" result="shape"/>
</filter>
<filter id="filter1_d" filterUnits="userSpaceOnUse" x="2807" y="-116" width="64" height="60" color-interpolation-filters="sRGB">
<feFlood flood-opacity="0" result="BackgroundImageFix"/>
<feColorMatrix in="SourceAlpha" type="matrix" values="0 0 0 0 0 0 0 0 0 0 0 0 0 0 0 0 0 0 255 0"/>
<feOffset dx="0" dy="4"/>
<feGaussianBlur stdDeviation="2"/>
<feColorMatrix type="matrix" values="0 0 0 0 0 0 0 0 0 0 0 0 0 0 0 0 0 0 0.25 0"/>
<feBlend mode="normal" in2="BackgroundImageFix" result="effect1_dropShadow"/>
<feBlend mode="normal" in="SourceGraphic" in2="effect1_dropShadow" result="shape"/>
</filter>
<filter id="filter2_d" filterUnits="userSpaceOnUse" x="2447" y="-435" width="293" height="267" color-interpolation-filters="sRGB">
<feFlood flood-opacity="0" result="BackgroundImageFix"/>
<feColorMatrix in="SourceAlpha" type="matrix" values="0 0 0 0 0 0 0 0 0 0 0 0 0 0 0 0 0 0 255 0"/>
<feOffset dx="0" dy="4"/>
<feGaussianBlur stdDeviation="2"/>
<feColorMatrix type="matrix" values="0 0 0 0 0 0 0 0 0 0 0 0 0 0 0 0 0 0 0.25 0"/>
<feBlend mode="normal" in2="BackgroundImageFix" result="effect1_dropShadow"/>
<feBlend mode="normal" in="SourceGraphic" in2="effect1_dropShadow" result="shape"/>
</filter>
<filter id="filter3_d" filterUnits="userSpaceOnUse" x="2531" y="-435" width="125" height="28" color-interpolation-filters="sRGB">
<feFlood flood-opacity="0" result="BackgroundImageFix"/>
<feColorMatrix in="SourceAlpha" type="matrix" values="0 0 0 0 0 0 0 0 0 0 0 0 0 0 0 0 0 0 255 0"/>
<feOffset dx="0" dy="4"/>
<feGaussianBlur stdDeviation="2"/>
<feColorMatrix type="matrix" values="0 0 0 0 0 0 0 0 0 0 0 0 0 0 0 0 0 0 0.25 0"/>
<feBlend mode="normal" in2="BackgroundImageFix" result="effect1_dropShadow"/>
<feBlend mode="normal" in="SourceGraphic" in2="effect1_dropShadow" result="shape"/>
</filter>
<filter id="filter4_d" filterUnits="userSpaceOnUse" x="2532" y="-198" width="126" height="30" color-interpolation-filters="sRGB">
<feFlood flood-opacity="0" result="BackgroundImageFix"/>
<feColorMatrix in="SourceAlpha" type="matrix" values="0 0 0 0 0 0 0 0 0 0 0 0 0 0 0 0 0 0 255 0"/>
<feOffset dx="0" dy="4"/>
<feGaussianBlur stdDeviation="2"/>
<feColorMatrix type="matrix" values="0 0 0 0 0 0 0 0 0 0 0 0 0 0 0 0 0 0 0.25 0"/>
<feBlend mode="normal" in2="BackgroundImageFix" result="effect1_dropShadow"/>
<feBlend mode="normal" in="SourceGraphic" in2="effect1_dropShadow" result="shape"/>
</filter>
<filter id="filter5_d" filterUnits="userSpaceOnUse" x="2466" y="-385" width="118" height="97" color-interpolation-filters="sRGB">
<feFlood flood-opacity="0" result="BackgroundImageFix"/>
<feColorMatrix in="SourceAlpha" type="matrix" values="0 0 0 0 0 0 0 0 0 0 0 0 0 0 0 0 0 0 255 0"/>
<feOffset dx="0" dy="4"/>
<feGaussianBlur stdDeviation="2"/>
<feColorMatrix type="matrix" values="0 0 0 0 0 0 0 0 0 0 0 0 0 0 0 0 0 0 0.25 0"/>
<feBlend mode="normal" in2="BackgroundImageFix" result="effect1_dropShadow"/>
<feBlend mode="normal" in="SourceGraphic" in2="effect1_dropShadow" result="shape"/>
</filter>
<filter id="filter6_d" filterUnits="userSpaceOnUse" x="2609" y="-406" width="61" height="72" color-interpolation-filters="sRGB">
<feFlood flood-opacity="0" result="BackgroundImageFix"/>
<feColorMatrix in="SourceAlpha" type="matrix" values="0 0 0 0 0 0 0 0 0 0 0 0 0 0 0 0 0 0 255 0"/>
<feOffset dx="0" dy="4"/>
<feGaussianBlur stdDeviation="2"/>
<feColorMatrix type="matrix" values="0 0 0 0 0 0 0 0 0 0 0 0 0 0 0 0 0 0 0.25 0"/>
<feBlend mode="normal" in2="BackgroundImageFix" result="effect1_dropShadow"/>
<feBlend mode="normal" in="SourceGraphic" in2="effect1_dropShadow" result="shape"/>
</filter>
<filter id="filter7_d" filterUnits="userSpaceOnUse" x="2586" y="-294" width="100" height="68" color-interpolation-filters="sRGB">
<feFlood flood-opacity="0" result="BackgroundImageFix"/>
<feColorMatrix in="SourceAlpha" type="matrix" values="0 0 0 0 0 0 0 0 0 0 0 0 0 0 0 0 0 0 255 0"/>
<feOffset dx="0" dy="4"/>
<feGaussianBlur stdDeviation="2"/>
<feColorMatrix type="matrix" values="0 0 0 0 0 0 0 0 0 0 0 0 0 0 0 0 0 0 0.25 0"/>
<feBlend mode="normal" in2="BackgroundImageFix" result="effect1_dropShadow"/>
<feBlend mode="normal" in="SourceGraphic" in2="effect1_dropShadow" result="shape"/>
</filter>
<filter id="filter8_d" filterUnits="userSpaceOnUse" x="2637" y="-295" width="55" height="70" color-interpolation-filters="sRGB">
<feFlood flood-opacity="0" result="BackgroundImageFix"/>
<feColorMatrix in="SourceAlpha" type="matrix" values="0 0 0 0 0 0 0 0 0 0 0 0 0 0 0 0 0 0 255 0"/>
<feOffset dx="0" dy="4"/>
<feGaussianBlur stdDeviation="2"/>
<feColorMatrix type="matrix" values="0 0 0 0 0 0 0 0 0 0 0 0 0 0 0 0 0 0 0.25 0"/>
<feBlend mode="normal" in2="BackgroundImageFix" result="effect1_dropShadow"/>
<feBlend mode="normal" in="SourceGraphic" in2="effect1_dropShadow" result="shape"/>
</filter>
<path id="path0_fill" d="M 71.5 0L 133.421 188.25L 9.57918 188.25L 71.5 0Z"/>
<path id="path1_fill" d="M 11.5 0L 14.0819 6.90983L 22.4371 6.90983L 15.6776 11.1803L 18.2595 18.0902L 11.5 13.8197L 4.74047 18.0902L 7.32238 11.1803L 0.56285 6.90983L 8.91809 6.90983L 11.5 0Z"/>
<path id="path2_fill" d="M 11.5 0L 14.1497 6.82865L 22.4371 6.90983L 15.7874 11.2113L 18.2595 18.0902L 11.5 13.92L 4.74047 18.0902L 7.21264 11.2113L 0.56285 6.90983L 8.85026 6.82865L 11.5 0Z"/>
<path id="path3_fill" d="M 168.5 0L 314.425 293.25L 22.5747 293.25L 168.5 0Z"/>
<path id="path4_fill" d="M 115 49.5C 115 76.8381 89.2564 99 57.5 99C 25.7436 99 0 76.8381 0 49.5C 0 22.1619 25.7436 0 57.5 0C 89.2564 0 115 22.1619 115 49.5Z"/>
<path id="path5_fill" d="M 47 8.5C 47 13.1944 36.4787 17 23.5 17C 10.5213 17 0 13.1944 0 8.5C 0 3.80558 10.5213 0 23.5 0C 36.4787 0 47 3.80558 47 8.5Z"/>
<path id="path6_fill" d="M 33.8489 6.21205C 33.8489 9.64287 26.2715 12.4241 16.9244 12.4241C 7.57733 12.4241 0 9.64287 0 6.21205C 0 2.78123 7.57733 0 16.9244 0C 26.2715 0 33.8489 2.78123 33.8489 6.21205Z"/>
<path id="path7_fill" d="M 30.8509 7.87921C 30.8509 12.2308 23.9447 15.7584 15.4255 15.7584C 6.90622 15.7584 0 12.2308 0 7.87921C 0 3.52764 6.90622 0 15.4255 0C 23.9447 0 30.8509 3.52764 30.8509 7.87921Z"/>
<path id="path8_fill" d="M 6.38266 0L 7.32807 5.09456L 12.4529 4.42172L 7.91237 6.89749L 10.1343 11.5762L 6.38266 8.01177L 2.63103 11.5762L 4.85295 6.89749L 0.31239 4.42172L 5.43725 5.09456L 6.38266 0Z"/>
<path id="path9_fill" d="M 6.38266 0L 7.74075 4.52509L 12.4529 4.42172L 8.5801 7.11501L 10.1343 11.5762L 6.38266 8.71568L 2.63103 11.5762L 4.18522 7.11501L 0.31239 4.42172L 5.02457 4.52509L 6.38266 0Z"/>
<path id="path10_fill" d="M 6.38266 0L 6.99043 5.56049L 12.4529 4.42172L 7.36605 6.71952L 10.1343 11.5762L 6.38266 7.43584L 2.63103 11.5762L 5.39928 6.71952L 0.31239 4.42172L 5.7749 5.56049L 6.38266 0Z"/>
<path id="path11_fill" d="M 6.38266 0L 7.21552 5.24987L 12.4529 4.42172L 7.73026 6.83817L 10.1343 11.5762L 6.38266 7.81979L 2.63103 11.5762L 5.03506 6.83817L 0.31239 4.42172L 5.5498 5.24987L 6.38266 0Z"/>
<path id="path12_fill" d="M 6.66755 0L 7.4984 4.66704L 13.0088 3.89245L 8.01189 6.00224L 10.5866 10.1906L 6.66755 6.82744L 2.74846 10.1906L 5.32321 6.00224L 0.326333 3.89245L 5.8367 4.66704L 6.66755 0Z"/>
<path id="path13_fill" d="M 7.208 0L 8.27566 4.19736L 14.0632 3.64301L 8.93552 5.68278L 11.4448 9.53753L 7.208 6.60082L 2.97124 9.53753L 5.48049 5.68278L 0.352785 3.64301L 6.14034 4.19736L 7.208 0Z"/>
<path id="path14_fill" d="M 6.12166 0L 7.42421 4.60192L 11.9437 4.4968L 8.22924 7.23583L 9.71988 11.7728L 6.12166 8.86367L 2.52344 11.7728L 4.01408 7.23583L 0.299615 4.4968L 4.8191 4.60192L 6.12166 0Z"/>
<path id="path15_fill" d="M 7.208 0L 7.89436 4.58124L 14.0632 3.64301L 8.31855 5.53615L 11.4448 9.53753L 7.208 6.12632L 2.97124 9.53753L 6.09746 5.53615L 0.352785 3.64301L 6.52165 4.58124L 7.208 0Z"/>
<path id="path16_fill" d="M 5.9757 0L 6.75546 5.44974L 11.6589 4.59006L 7.23738 7.0985L 9.48813 12.0169L 5.9757 8.1175L 2.46327 12.0169L 4.71402 7.0985L 0.292472 4.59006L 5.19594 5.44974L 5.9757 0Z"/>
<path id="path17_fill" d="M 5.65717 0L 6.36211 5.18493L 11.0374 4.32438L 6.79779 6.66829L 8.98236 11.3214L 5.65717 7.58506L 2.33197 11.3214L 4.51655 6.66829L 0.276881 4.32438L 4.95222 5.18493L 5.65717 0Z"/>
<path id="path18_fill" d="M 236 112C 236 173.856 183.17 224 118 224C 52.8304 224 0 173.856 0 112C 0 50.1441 52.8304 0 118 0C 183.17 0 236 50.1441 236 112Z"/>
<path id="path19_fill" d="M 0 0L 171 0L 171 38L 0 38L 0 0Z"/>
<path id="path20_fill" d="M 0 0L 21 0L 21 86L 0 86L 0 0Z"/>
<path id="path21_fill" d="M 0 0L 224 0L 224 202L 0 202L 0 0Z"/>
<path id="path22_fill" d="M 0 0L 1386 0L 1386 148L 0 148L 0 0Z"/>
<path id="path23_fill" d="M 0 0L 205 0L 205 63L 0 63L 0 0Z"/>
<path id="path24_fill" d="M 0 0L 125 0L 125 283L 0 283L 0 0Z"/>
<path id="path25_fill" d="M 0 0L 11 0L 11 205L 0 205L 0 0Z"/>
<path id="path26_fill" d="M 0 0L 120 0L 120 362L 0 362L 0 0Z"/>
<path id="path27_fill" d="M 0 0L 121 0L 121 446L 0 446L 0 0Z"/>
<path id="path28_fill" d="M 86 0L 160.478 61.5L 11.5218 61.5L 86 0Z"/>
<path id="path29_fill" d="M 23 0L 42.9186 76.5L 3.08142 76.5L 23 0Z"/>
<path id="path30_fill" d="M 0 0L 130 0L 130 396L 0 396L 0 0Z"/>
<path id="path31_fill" d="M 0 0L 98 0L 98 111L 0 111L 0 0Z"/>
<path id="path32_fill" d="M 60.5 0L 118.039 74.6262L 96.061 195.374L 24.939 195.374L 2.96108 74.6262L 60.5 0Z"/>
<path id="path33_fill" d="M 0 0L 149 0L 149 233L 0 233L 0 0Z"/>
<path id="path34_fill" d="M 0 0L 409 0L 409 147L 0 147L 0 0Z"/>
<path id="path35_fill" d="M 0 0L 149 0L 149 339L 0 339L 0 0Z"/>
<path id="path36_fill" d="M 0 0L 79 0L 79 190L 0 190L 0 0Z"/>
<path id="path37_fill" d="M 0 0L 175 0L 175 142L 0 142L 0 0Z"/>
<path id="path38_fill" d="M 0 0L 72 0L 72 108L 0 108L 0 0Z"/>
<path id="path39_fill" d="M 0 0L 95 0L 95 184L 0 184L 0 0Z"/>
<path id="path40_fill" d="M 51 0L 95.1673 61.5L 6.8327 61.5L 51 0Z"/>
<path id="path41_fill" d="M 0 0L 157 0L 157 106L 0 106L 0 0Z"/>
<path id="path42_fill" d="M 0 0L 65 0L 65 157L 0 157L 0 0Z"/>
<path id="path43_fill" d="M 0 23L 84 0L 84 108.5L 0 108.5L 0 23Z"/>
<path id="path44_fill" d="M 0 0L 154 0L 154 80L 0 80L 0 0Z"/>
<path id="path45_fill" d="M 0 0L 145 0L 145 158L 0 158L 0 0Z"/>
<path id="path46_fill" d="M 0 0L 81 0L 81 219L 0 219L 0 0Z"/>
<path id="path47_fill" d="M 0 0L 36 0L 36 54L 0 54L 0 0Z"/>
<path id="path48_fill" d="M 0 0L 79 0L 79 106L 0 106L 0 0Z"/>
<path id="path49_fill" d="M 0 0L 175 0L 175 66L 0 66L 0 0Z"/>
<path id="path50_fill" d="M 104.5 0L 195 61.5L 14.0003 61.5L 104.5 0Z"/>
<path id="path51_fill" d="M 0 0L 183 0L 183 81L 0 81L 0 0Z"/>
<path id="path52_fill" d="M 0 0L 244 0L 244 97L 0 97L 0 0Z"/>
<path id="path53_fill" d="M 148.289 0L 148.289 95.7085L 0 95.7085L 148.289 0Z"/>
<path id="path54_fill" d="M 175 0L 175 60L 0 60L 175 0Z"/>
<path id="path55_fill" d="M 644 260.5C 644 404.37 499.836 521 322 521C 144.164 521 0 404.37 0 260.5C 0 116.63 144.164 0 322 0C 499.836 0 644 116.63 644 260.5Z"/>
<path id="path56_fill" d="M 17.8919 0L 33.3868 35.1461L 2.39707 35.1461L 17.8919 0Z"/>
<path id="path57_fill" d="M 21 0L 39.1865 45L 2.81347 45L 21 0Z"/>
<path id="path58_fill" d="M 14 0L 26.1244 51L 1.87564 51L 14 0Z"/>
<path id="path59_fill" d="M 4.5 0L 8.39711 24.75L 0.602886 24.75L 4.5 0Z"/>
<path id="path60_fill" d="M 0 0L 36 0L 36 91L 0 91L 0 0Z"/>
<path id="path61_fill" d="M 0 0L 15 0L 15 12L 0 12L 0 0Z"/>
<path id="path62_fill" d="M 0 0L 21 0L 21 11L 0 11L 0 0Z"/>
<path id="path63_fill" d="M 0 0L 20 0L 20 18L 0 18L 0 0Z"/>
<path id="path64_fill" d="M 6.38266 0L 10.1343 1.22213L 12.4529 4.42172L 12.4529 8.37663L 10.1343 11.5762L 6.38266 12.7984L 2.63103 11.5762L 0.31239 8.37663L 0.31239 4.42172L 2.63103 1.22213L 6.38266 0Z"/>
<path id="path65_fill" d="M 285 129C 285 200.245 221.201 258 142.5 258C 63.7994 258 0 200.245 0 129C 0 57.7553 63.7994 0 142.5 0C 221.201 0 285 57.7553 285 129Z"/>
<path id="path66_fill" d="M 0 0L 117 0L 117 10L 0 10L 0 0Z"/>
<path id="path67_fill" d="M 0 0L 85 0L 85 12L 0 12L 0 0Z"/>
<path id="path68_fill" d="M 0 0L 57 0L 57 32L 0 32L 0 0Z"/>
<path id="path69_fill" d="M 0 0L 70 0L 70 19L 0 19L 0 0Z"/>
<path id="path70_fill" d="M 0 0L 57 0L 57 20L 0 20L 0 0Z"/>
<path id="path71_fill" d="M 0 0L 11.9291 0L 11.9291 41L 0 41L 0 0Z"/>
<path id="path72_fill" d="M 0 0L 74 0L 74 32L 0 32L 0 0Z"/>
<path id="path73_fill" d="M 0 0L 89 0L 89 21L 0 21L 0 0Z"/>
<path id="path74_fill" d="M 0 0L 70 0L 70 16L 0 16L 0 0Z"/>
<path id="path75_fill" d="M 0 0L 26.0782 0L 26.0782 18.814L 0 18.814L 0 0Z"/>
<path id="path76_fill" d="M 0 0L 32.0259 0L 32.0259 11.1708L 0 11.1708L 0 0Z"/>
<path id="path77_fill" d="M 0 0L 32.5847 0L 32.5847 11.0511L 0 11.0511L 0 0Z"/>
<path id="path78_fill" d="M 0 0L 26.0782 0L 26.0782 11.7588L 0 11.7588L 0 0Z"/>
<path id="path79_fill" d="M 0 0L 6.99364 0L 6.99364 18.8458L 0 18.8458L 0 0Z"/>
<path id="path80_fill" d="M 0 0L 33.9913 0L 33.9913 18.7683L 0 18.7683L 0 0Z"/>
<path id="path81_fill" d="M 0 0L 40.7186 0L 40.7186 12.3467L 0 12.3467L 0 0Z"/>
<path id="path82_fill" d="M 0 0L 32.4011 0L 32.4011 9.33963L 0 9.33963L 0 0Z"/>
<path id="path83_fill" d="M 0 0L 51.0868 0L 51.0868 10.2027L 0 10.2027L 0 0Z"/>
<path id="path84_fill" d="M 0 0L 62.7381 0L 62.7381 6.05783L 0 6.05783L 0 0Z"/>
<path id="path85_fill" d="M 0 0L 61.2395 0L 61.2395 7.09826L 0 7.09826L 0 0Z"/>
<path id="path86_fill" d="M 0 0L 51.0868 0L 51.0868 6.37666L 0 6.37666L 0 0Z"/>
<path id="path87_fill" d="M 0 0L 3.98792 0L 3.98792 36.5148L 0 36.5148L 0 0Z"/>
<path id="path88_fill" d="M 0 0L 65.9659 0L 65.9659 10.6269L 0 10.6269L 0 0Z"/>
<path id="path89_fill" d="M 0 0L 79.7671 0L 79.7671 6.6955L 0 6.6955L 0 0Z"/>
<path id="path90_fill" d="M 0 0L 61.7388 0L 61.7388 5.70289L 0 5.70289L 0 0Z"/>
<path id="path91_fill" d="M 0 0L 22.2423 0L 22.2423 19.1418L 0 19.1418L 0 0Z"/>
<path id="path92_fill" d="M 0 0L 27.3151 0L 27.3151 11.3655L 0 11.3655L 0 0Z"/>
<path id="path93_fill" d="M 0 0L 28.2939 0L 28.2939 11.1877L 0 11.1877L 0 0Z"/>
<path id="path94_fill" d="M 0 0L 22.2423 0L 22.2423 11.9636L 0 11.9636L 0 0Z"/>
<path id="path95_fill" d="M 0 0L 7.10621 0L 7.10621 16.1536L 0 16.1536L 0 0Z"/>
<path id="path96_fill" d="M 0 0L 29.1147 0L 29.1147 19.0741L 0 19.0741L 0 0Z"/>
<path id="path97_fill" d="M 0 0L 34.7292 0L 34.7292 12.5618L 0 12.5618L 0 0Z"/>
<path id="path98_fill" d="M 0 0L 27.9743 0L 27.9743 9.47092L 0 9.47092L 0 0Z"/>
<path id="path99_fill" d="M 0 0L 29 0L 29 12L 0 12L 0 0Z"/>
<path id="path100_fill" d="M 0 0L 38 0L 38 16L 0 16L 0 0Z"/>
<path id="path101_fill" d="M 99 19C 99 29.4934 76.8381 38 49.5 38C 22.1619 38 0 29.4934 0 19C 0 8.50659 22.1619 0 49.5 0C 76.8381 0 99 8.50659 99 19Z"/>
<path id="path102_stroke" d="M 0 0L 57.0001 0L 57.0001 -10L 0 -10L 0 0Z"/>
</defs>
</svg>
