<svg width="3380" height="600" viewBox="0 0 3380 600" version="1.1" xmlns="http://www.w3.org/2000/svg" xmlns:xlink="http://www.w3.org/1999/xlink">
<title>Desktop HD</title>
<desc>Created using Figma</desc>
<g id="Canvas" transform="translate(720 513)">
<clipPath id="clip-0" clip-rule="evenodd">
<path d="M -720 -513L 2660 -513L 2660 87L -720 87L -720 -513Z" fill="#FFFFFF"/>
</clipPath>
<g id="Desktop HD" clip-path="url(#clip-0)">
<path d="M -720 -513L 2660 -513L 2660 87L -720 87L -720 -513Z" fill="#FFFFFF"/>
<clipPath id="clip-1" clip-rule="evenodd">
<path d="M -720 -513L 720 -513L 720 87L -720 87L -720 -513Z" fill="#FFFFFF"/>
</clipPath>
<g id="Hero Frame" clip-path="url(#clip-1)">
<path d="M -720 -513L 720 -513L 720 87L -720 87L -720 -513Z" fill="#0064AA"/>
<g id="Far Mountain">
<use xlink:href="#path0_fill" transform="translate(-151 -162)" fill="#1E4F33"/>
</g>
<g id="Far Mountain">
<use xlink:href="#path0_fill" transform="translate(60 -151)" fill="#1E4F33"/>
</g>
<g id="Far Mountain">
<use xlink:href="#path0_fill" transform="translate(264 -162)" fill="#1E4F33"/>
</g>
<g id="Far Mountain">
<use xlink:href="#path0_fill" transform="translate(451 -151)" fill="#1E4F33"/>
</g>
<g id="Star">
<use xlink:href="#path1_fill" transform="matrix(0.906308 -0.422618 0.422618 0.906308 -626.149 -441.203)" fill="#F7DB86"/>
</g>
<g id="Star">
<use xlink:href="#path2_fill" transform="matrix(1 2.22045e-16 -2.22045e-16 1 -249.577 -196.351)" fill="#F7DB86"/>
</g>
<g id="Star">
<use xlink:href="#path2_fill" transform="matrix(-1 -3.44509e-16 3.44509e-16 -1 -261.577 -400.351)" fill="#F7DB86"/>
</g>
<g id="Star">
<use xlink:href="#path2_fill" transform="matrix(-1 -3.44509e-16 3.44509e-16 -1 -679 -134)" fill="#F7DB86"/>
</g>
<g id="Star">
<use xlink:href="#path2_fill" transform="matrix(-1 -3.44509e-16 3.44509e-16 -1 -459.577 -194.351)" fill="#F7DB86"/>
</g>
<g id="Far Mountain">
<use xlink:href="#path0_fill" transform="translate(-377 -162)" fill="#1E4F33"/>
</g>
<g id="Far Mountain">
<use xlink:href="#path0_fill" transform="translate(-596 -186)" fill="#1E4F33"/>
</g>
<g id="Mountain 1">
<use xlink:href="#path3_fill" transform="translate(-590 -204)" fill="#2C8259"/>
</g>
<g id="Mountain 1.6">
<use xlink:href="#path3_fill" transform="translate(-782 -187)" fill="#2C8259"/>
</g>
<g id="Mountain 1.1">
<use xlink:href="#path3_fill" transform="translate(-365 -204)" fill="#2C8259"/>
</g>
<g id="Mountain 1.2">
<use xlink:href="#path3_fill" transform="translate(-141 -187)" fill="#2C8259"/>
</g>
<g id="Mountain 1.3">
<use xlink:href="#path3_fill" transform="translate(68 -172)" fill="#2C8259"/>
</g>
<g id="Mountain 1.4">
<use xlink:href="#path3_fill" transform="translate(257 -162)" fill="#2C8259"/>
</g>
<g id="Mountain 1.5">
<use xlink:href="#path3_fill" transform="translate(445 -151)" fill="#2C8259"/>
</g>
</g>
<g id="Rectangle">
<use xlink:href="#path4_fill" transform="translate(670 24)" fill="url(#paint18_linear)"/>
</g>
<g id="Rectangle 2">
<use xlink:href="#path5_fill" transform="translate(720 -513)" fill="url(#paint19_linear)"/>
</g>
<clipPath id="clip-2" clip-rule="evenodd">
<path d="M 1220 -513L 2673 -513L 2673 87L 1220 87L 1220 -513Z" fill="#FFFFFF"/>
</clipPath>
<g id="hero" clip-path="url(#clip-2)">
<path d="M 1220 -513L 2673 -513L 2673 87L 1220 87L 1220 -513Z" fill="#F2994A"/>
<g id="Ellipse">
<use xlink:href="#path6_fill" transform="translate(1822 -62)" fill="#F2C94C"/>
</g>
<g id="Rectangle 4">
<use xlink:href="#path7_fill" transform="translate(2415 -105)" fill="#9E3900"/>
</g>
<g id="Rectangle 4">
<use xlink:href="#path8_fill" transform="translate(2529 -191)" fill="#9E3900"/>
</g>
<g id="Rectangle 4">
<use xlink:href="#path9_fill" transform="translate(2385 -51)" fill="#9E3900"/>
</g>
<g id="Rectangle 4.1">
<use xlink:href="#path10_fill" transform="translate(1205 3)" fill="#9E3900"/>
</g>
<g id="Rectangle 4">
<use xlink:href="#path11_fill" transform="translate(2394 -82)" fill="#9E3900"/>
</g>
<g id="Rectangle">
<use xlink:href="#path12_fill" transform="translate(1735 -184)" fill="#9E3900"/>
</g>
<g id="Rectangle">
<use xlink:href="#path13_fill" transform="translate(2015 -333)" fill="#9E3900"/>
</g>
<g id="Rectangle">
<use xlink:href="#path13_fill" transform="translate(2058 -311)" fill="#9E3900"/>
</g>
<g id="Rectangle">
<use xlink:href="#path14_fill" transform="translate(1984 -263)" fill="#9E3900"/>
</g>
<g id="Rectangle">
<use xlink:href="#path15_fill" transform="translate(2192 -293)" fill="#9E3900"/>
</g>
<g id="Polygon">
<use xlink:href="#path16_fill" transform="translate(1358 -188)" fill="#9E3900"/>
</g>
<g id="Polygon 2">
<use xlink:href="#path17_fill" transform="translate(1590 -459)" fill="#9E3900"/>
</g>
<g id="back R#">
<use xlink:href="#path18_fill" transform="translate(1546 -291)" fill="#9E3900"/>
</g>
<g id="Rectangle 4">
<use xlink:href="#path19_fill" transform="translate(1562 -386)" fill="#9E3900"/>
</g>
<g id="Polygon">
<use xlink:href="#path20_fill" transform="translate(2192 -383)" fill="#9E3900"/>
</g>
<g id="Rectangle">
<use xlink:href="#path21_fill" transform="translate(1371 -128)" fill="#9E3900"/>
</g>
<g id="Rectangle">
<use xlink:href="#path22_fill" transform="translate(2029 -33)" fill="#9E3900"/>
</g>
<g id="Rectangle">
<use xlink:href="#path23_fill" transform="translate(1211 -236)" fill="#9E3900"/>
</g>
<g id="Front">
<use xlink:href="#path24_fill" transform="translate(1299 -51)" fill="#BD3B04"/>
</g>
<g id="Rectangle">
<use xlink:href="#path25_fill" transform="translate(1940 -43)" fill="#BD3B04"/>
</g>
<g id="Rectangle">
<use xlink:href="#path26_fill" transform="translate(2104 45)" fill="#BD3B04"/>
</g>
<g id="Rectangle">
<use xlink:href="#path27_fill" transform="translate(2170 -33)" fill="#BD3B04"/>
</g>
<g id="Roof">
<use xlink:href="#path28_fill" transform="translate(1205 -24)" fill="#BD3B04"/>
</g>
<g id="Roof">
<use xlink:href="#path28_fill" transform="translate(2470 -8)" fill="#BD3B04"/>
</g>
<g id="Rectangle 2.1">
<use xlink:href="#path29_fill" transform="translate(1694 33)" fill="#BD3B04"/>
</g>
<g id="Rectangle 2.5">
<use xlink:href="#path30_fill" transform="translate(1571 -43)" fill="#BD3B04"/>
</g>
<g id="Rectangle 2.4">
<use xlink:href="#path31_fill" transform="translate(2404 67)" fill="#BD3B04"/>
</g>
<g id="Rectangle 2.3">
<use xlink:href="#path32_fill" transform="translate(1851 86)" fill="#BD3B04"/>
</g>
<g id="Rectangle 3">
<use xlink:href="#path33_fill" transform="translate(1970 4)" fill="#BD3B04"/>
</g>
<g id="Rectangle 3.1">
<use xlink:href="#path34_fill" transform="matrix(-1 0 0 1 2631 -33)" fill="#BD3B04"/>
</g>
<g id="Rectangle 2.2">
<use xlink:href="#path35_fill" transform="translate(1720 -10)" fill="#BD3B04"/>
</g>
<g id="Base">
<use xlink:href="#path36_fill" transform="translate(1220 33)" fill="#BD3B04"/>
</g>
<g id="Base">
<use xlink:href="#path36_fill" transform="translate(2482 52)" fill="#BD3B04"/>
</g>
<g id="Base">
<use xlink:href="#path37_fill" transform="translate(2482 74)" fill="#BD3B04"/>
</g>
<g id="Roof">
<use xlink:href="#path38_fill" transform="translate(1351 4)" fill="#BD3B04"/>
</g>
<g id="Roof">
<use xlink:href="#path38_fill" transform="translate(2229 3)" fill="#BD3B04"/>
</g>
<g id="Base">
<use xlink:href="#path39_fill" transform="translate(1360 58)" fill="#BD3B04"/>
</g>
<g id="Base">
<use xlink:href="#path40_fill" transform="translate(2176 62)" fill="#BD3B04"/>
</g>
<g id="Polygon">
<use xlink:href="#path41_fill" transform="translate(1805.92 9.5)" fill="#BD3B04"/>
</g>
<g id="Polygon">
<use xlink:href="#path42_fill" transform="translate(1938 -103)" fill="#BD3B04"/>
</g>
</g>
</g>
</g>
<defs>
<linearGradient id="paint18_linear" x1="0" y1="0" x2="1" y2="0" gradientUnits="userSpaceOnUse" gradientTransform="matrix(-565.4 -3.91364e-05 0.000345885 -3953.85 510.4 2009.92)">
<stop offset="0" stop-color="#BD3B04"/>
<stop offset="0.894942" stop-color="#2C8259"/>
</linearGradient>
<linearGradient id="paint19_linear" x1="0" y1="0" x2="1" y2="0" gradientUnits="userSpaceOnUse" gradientTransform="matrix(-490 4.69102e-05 -4.43561e-05 -456.238 490 496.119)">
<stop offset="0" stop-color="#F2994A"/>
<stop offset="1" stop-color="#0064AA"/>
</linearGradient>
<path id="path0_fill" d="M 71.5 0L 133.421 188.25L 9.57918 188.25L 71.5 0Z"/>
<path id="path1_fill" d="M 11.5 0L 14.0819 6.90983L 22.4371 6.90983L 15.6776 11.1803L 18.2595 18.0902L 11.5 13.8197L 4.74047 18.0902L 7.32238 11.1803L 0.56285 6.90983L 8.91809 6.90983L 11.5 0Z"/>
<path id="path2_fill" d="M 11.5 0L 14.1497 6.82865L 22.4371 6.90983L 15.7874 11.2113L 18.2595 18.0902L 11.5 13.92L 4.74047 18.0902L 7.21264 11.2113L 0.56285 6.90983L 8.85026 6.82865L 11.5 0Z"/>
<path id="path3_fill" d="M 168.5 0L 314.425 293.25L 22.5747 293.25L 168.5 0Z"/>
<path id="path4_fill" d="M 0 0L 550 0L 550 65L 0 65L 0 0Z"/>
<path id="path5_fill" d="M 0 0L 500 0L 500 537L 0 537L 0 0Z"/>
<path id="path6_fill" d="M 236 112C 236 173.856 183.17 224 118 224C 52.8304 224 0 173.856 0 112C 0 50.1441 52.8304 0 118 0C 183.17 0 236 50.1441 236 112Z"/>
<path id="path7_fill" d="M 0 0L 171 0L 171 38L 0 38L 0 0Z"/>
<path id="path8_fill" d="M 0 0L 21 0L 21 86L 0 86L 0 0Z"/>
<path id="path9_fill" d="M 0 0L 224 0L 224 202L 0 202L 0 0Z"/>
<path id="path10_fill" d="M 0 0L 1386 0L 1386 148L 0 148L 0 0Z"/>
<path id="path11_fill" d="M 0 0L 205 0L 205 63L 0 63L 0 0Z"/>
<path id="path12_fill" d="M 0 0L 125 0L 125 283L 0 283L 0 0Z"/>
<path id="path13_fill" d="M 0 0L 11 0L 11 205L 0 205L 0 0Z"/>
<path id="path14_fill" d="M 0 0L 120 0L 120 362L 0 362L 0 0Z"/>
<path id="path15_fill" d="M 0 0L 121 0L 121 446L 0 446L 0 0Z"/>
<path id="path16_fill" d="M 86 0L 160.478 61.5L 11.5218 61.5L 86 0Z"/>
<path id="path17_fill" d="M 23 0L 42.9186 76.5L 3.08142 76.5L 23 0Z"/>
<path id="path18_fill" d="M 0 0L 130 0L 130 396L 0 396L 0 0Z"/>
<path id="path19_fill" d="M 0 0L 98 0L 98 111L 0 111L 0 0Z"/>
<path id="path20_fill" d="M 60.5 0L 118.039 74.6262L 96.061 195.374L 24.939 195.374L 2.96108 74.6262L 60.5 0Z"/>
<path id="path21_fill" d="M 0 0L 149 0L 149 233L 0 233L 0 0Z"/>
<path id="path22_fill" d="M 0 0L 409 0L 409 147L 0 147L 0 0Z"/>
<path id="path23_fill" d="M 0 0L 149 0L 149 339L 0 339L 0 0Z"/>
<path id="path24_fill" d="M 0 0L 79 0L 79 190L 0 190L 0 0Z"/>
<path id="path25_fill" d="M 0 0L 175 0L 175 142L 0 142L 0 0Z"/>
<path id="path26_fill" d="M 0 0L 72 0L 72 108L 0 108L 0 0Z"/>
<path id="path27_fill" d="M 0 0L 95 0L 95 184L 0 184L 0 0Z"/>
<path id="path28_fill" d="M 51 0L 95.1673 61.5L 6.8327 61.5L 51 0Z"/>
<path id="path29_fill" d="M 0 0L 157 0L 157 106L 0 106L 0 0Z"/>
<path id="path30_fill" d="M 0 0L 65 0L 65 157L 0 157L 0 0Z"/>
<path id="path31_fill" d="M 0 23L 84 0L 84 108.5L 0 108.5L 0 23Z"/>
<path id="path32_fill" d="M 0 0L 154 0L 154 80L 0 80L 0 0Z"/>
<path id="path33_fill" d="M 0 0L 145 0L 145 158L 0 158L 0 0Z"/>
<path id="path34_fill" d="M 0 0L 81 0L 81 219L 0 219L 0 0Z"/>
<path id="path35_fill" d="M 0 0L 36 0L 36 54L 0 54L 0 0Z"/>
<path id="path36_fill" d="M 0 0L 79 0L 79 106L 0 106L 0 0Z"/>
<path id="path37_fill" d="M 0 0L 175 0L 175 66L 0 66L 0 0Z"/>
<path id="path38_fill" d="M 104.5 0L 195 61.5L 14.0003 61.5L 104.5 0Z"/>
<path id="path39_fill" d="M 0 0L 183 0L 183 81L 0 81L 0 0Z"/>
<path id="path40_fill" d="M 0 0L 244 0L 244 97L 0 97L 0 0Z"/>
<path id="path41_fill" d="M 148.289 0L 148.289 95.7085L 0 95.7085L 148.289 0Z"/>
<path id="path42_fill" d="M 175 0L 175 60L 0 60L 175 0Z"/>
</defs>
</svg>
