<svg width="1440" height="600" viewBox="0 0 1440 600" version="1.1" xmlns="http://www.w3.org/2000/svg" xmlns:xlink="http://www.w3.org/1999/xlink">
<title>Hero Frame</title>
<desc>Created using Figma</desc>
<g id="Canvas" transform="translate(720 426)">
<clipPath id="clip-0" clip-rule="evenodd">
<path d="M -720 -426L 728 -426L 728 174L -720 174L -720 -426Z" fill="#FFFFFF"/>
</clipPath>
<g id="Hero Frame" clip-path="url(#clip-0)">
<path d="M -720 -426L 728 -426L 728 174L -720 174L -720 -426Z" fill="#0064AA"/>
<g id="Far Mountain">
<use xlink:href="#path0_fill" transform="translate(-151 -75)" fill="#1E4F33"/>
</g>
<g id="Far Mountain">
<use xlink:href="#path0_fill" transform="translate(60 -64)" fill="#1E4F33"/>
</g>
<g id="Far Mountain">
<use xlink:href="#path0_fill" transform="translate(264 -75)" fill="#1E4F33"/>
</g>
<g id="Far Mountain">
<use xlink:href="#path0_fill" transform="translate(451 -64)" fill="#1E4F33"/>
</g>
<g id="Far Mountain">
<use xlink:href="#path0_fill" transform="translate(621 -47)" fill="#1E4F33"/>
</g>
<g id="Star">
<use xlink:href="#path1_fill" transform="matrix(0.906308 -0.422618 0.422618 0.906308 -626.149 -354.203)" fill="#F7DB86"/>
</g>
<g id="Star">
<use xlink:href="#path2_fill" transform="matrix(1 2.22045e-16 -2.22045e-16 1 -249.577 -109.351)" fill="#F7DB86"/>
</g>
<g id="Star">
<use xlink:href="#path2_fill" transform="matrix(-1 -3.44509e-16 3.44509e-16 -1 -261.577 -313.351)" fill="#F7DB86"/>
</g>
<g id="Star">
<use xlink:href="#path2_fill" transform="matrix(-1 -3.44509e-16 3.44509e-16 -1 -679 -47)" fill="#F7DB86"/>
</g>
<g id="Star">
<use xlink:href="#path2_fill" transform="matrix(-1 -3.44509e-16 3.44509e-16 -1 -459.577 -107.351)" fill="#F7DB86"/>
</g>
<g id="Far Mountain">
<use xlink:href="#path0_fill" transform="translate(-377 -75)" fill="#1E4F33"/>
</g>
<g id="Far Mountain">
<use xlink:href="#path0_fill" transform="translate(-596 -99)" fill="#1E4F33"/>
</g>
<g id="Mountain 1">
<use xlink:href="#path3_fill" transform="translate(-590 -117)" fill="#2C8259"/>
</g>
<g id="Mountain 1.6">
<use xlink:href="#path3_fill" transform="translate(-782 -100)" fill="#2C8259"/>
</g>
<g id="Mountain 1.1">
<use xlink:href="#path3_fill" transform="translate(-365 -117)" fill="#2C8259"/>
</g>
<g id="Mountain 1.2">
<use xlink:href="#path3_fill" transform="translate(-141 -100)" fill="#2C8259"/>
</g>
<g id="Mountain 1.3">
<use xlink:href="#path3_fill" transform="translate(68 -85)" fill="#2C8259"/>
</g>
<g id="Mountain 1.4">
<use xlink:href="#path3_fill" transform="translate(257 -75)" fill="#2C8259"/>
</g>
<g id="Mountain 1.5">
<use xlink:href="#path3_fill" transform="translate(445 -64)" fill="#2C8259"/>
</g>
</g>
</g>
<defs>
<path id="path0_fill" d="M 71.5 0L 133.421 188.25L 9.57918 188.25L 71.5 0Z"/>
<path id="path1_fill" d="M 11.5 0L 14.0819 6.90983L 22.4371 6.90983L 15.6776 11.1803L 18.2595 18.0902L 11.5 13.8197L 4.74047 18.0902L 7.32238 11.1803L 0.56285 6.90983L 8.91809 6.90983L 11.5 0Z"/>
<path id="path2_fill" d="M 11.5 0L 14.1497 6.82865L 22.4371 6.90983L 15.7874 11.2113L 18.2595 18.0902L 11.5 13.92L 4.74047 18.0902L 7.21264 11.2113L 0.56285 6.90983L 8.85026 6.82865L 11.5 0Z"/>
<path id="path3_fill" d="M 168.5 0L 314.425 293.25L 22.5747 293.25L 168.5 0Z"/>
</defs>
</svg>
